<svg xmlns="http://www.w3.org/2000/svg" width="1600" height="251" viewBox="0 0 1600 251" fill="none">
<g clip-path="url(#clip0_5_106)">
<path d="M1040 55.9998C1040.5 55.9998 1041 55.9998 1041.6 55.9998C1025 47.0998 1005.2 40.2998 975.2 40.2998C919.2 40.2998 898.4 63.9998 868.3 81.2998C881.1 89.2998 895.6 95.9998 920 95.9998C979.5 95.9998 980 55.9998 1040 55.9998Z" fill="white"/>
<path d="M1699.8 95.9998V106H1946L1945.7 99.0998C1945.7 99.0998 1945.7 99.0998 1857.7 99.0998C1769.7 99.0998 1769.1 40.2998 1681.2 40.2998C1629.8 40.2998 1608.2 60.3998 1581.6 77.0998C1596.1 86.6998 1611.2 95.9998 1640 95.9998C1699.8 95.9998 1699.8 95.9998 1699.8 95.9998Z" fill="white"/>
<path d="M1400 95.9998C1419.5 95.9998 1432.7 91.6998 1443.7 85.9998C1408.5 68.6998 1389.6 40.2998 1328.2 40.2998C1295.9 40.2998 1275.4 48.1998 1258 58.0998C1264.4 56.7998 1271.6 55.9998 1280 55.9998C1340.1 55.9998 1340.3 95.9998 1400 95.9998Z" fill="white"/>
<path d="M320 55.9998C326.6 55.9998 332.4 56.4998 337.7 57.2998C320.7 47.6998 300.4 40.2998 269.2 40.2998C208.8 40.2998 189.7 68.0998 155.2 85.4998C166.4 91.4998 179.8 95.9998 200 95.9998C260 95.9998 259.9 55.9998 320 55.9998Z" fill="white"/>
<path d="M680 95.9998C703.7 95.9998 718.1 89.6998 730.5 82.0998C699.6 64.7998 679 40.2998 622.2 40.2998C592.2 40.2998 572.4 47.0998 555.9 56.0998C557.2 56.0998 558.6 55.9998 560 55.9998C619.7 55.9998 620.2 95.9998 680 95.9998Z" fill="white"/>
<path d="M-40 95.6002C-11.7 95.6002 3.29999 86.9002 17.4 77.6002C-9.60001 60.8002 -31 40.2002 -83.2 40.2002C-97.5 40.2002 -109.5 41.8002 -120 44.4002V106H-60V96.0002L-40 95.6002Z" fill="white"/>
<path d="M504 73.4C501.4 72.6 498.3 72 494.4 72C475 72 474.8 85 455.4 85C436 85 435.9 72 416.4 72C402.4 72 398.4 78.7 390.1 82.4C402.4 89.9 416.7 96 440 96C472.5 96 487.5 84.2 504 73.4Z" fill="white"/>
<path d="M1205.4 85C1205.2 85 1205 85 1204.8 85C1185.3 85 1185.3 72 1165.8 72C1146.3 72 1146.4 84.9 1126.8 84.9C1126.8 84.9 1120.9 84.9 1114.5 85C1125.9 91.3 1139.4 96 1160 96C1180.6 96 1194.1 91.2 1205.4 85Z" fill="white"/>
<path d="M1447.4 83.9C1445 84.6 1442.2 85 1438.8 85C1419.5 85 1419.2 72 1399.8 72C1380.4 72 1380.2 85 1360.8 85C1357.8 85 1355.3 84.7 1353.1 84.2C1364.7 90.8 1378.5 96 1400 96C1421.8 96 1435.7 90.7 1447.4 83.9Z" fill="white"/>
<path d="M985.8 72C968.2 72.8 967.5 85 948.8 85C929.4 85 929.3 72 909.8 72C891.6 72 890.2 83.4 874.3 84.8C885.7 91.1 899.3 96 920 96C953.7 96 968.5 83.2 985.8 72Z" fill="white"/>
<path d="M743.8 73.5C733.5 76.9 730.2 85 714.8 85C695.4 85 695.3 72 675.8 72C656.3 72 656.3 85 636.8 85C635.9 85 635.1 85 634.3 84.9C645.7 91.2 659.3 96 680 96C712.4 96 727.3 84.2 743.8 73.5Z" fill="white"/>
<path d="M265.5 72.3C264 72.1 262.3 72 260.4 72C241 72 240.8 85 221.4 85C202 85 201.8 72 182.4 72C166.5 72 163.5 80.7 152.3 83.9C164.1 90.6 178 96 200 96C233.7 96 248.4 83.4 265.5 72.3Z" fill="white"/>
<path d="M1692.3 96V85C1692.3 85 1692.3 85 1672.8 85C1653.3 85 1653.2 72 1633.8 72C1614.4 72 1614.2 85 1594.8 85C1594.7 85 1594.6 85 1594.4 85C1605.8 91.2 1619.3 96 1640 96C1669.9 96 1684.8 96 1692.3 96Z" fill="white"/>
<path d="M25.5 72C6 72 6.1 84.9 -13.5 84.9L-20 85V93.9C0.700001 90.1 12.6 80.6 25.9 72C25.8 72 25.7 72 25.5 72Z" fill="white" stroke="white"/>
<path d="M-40 95.6C20.3 95.6 20.1 56 80 56C139.9 56 140 96 200 96C260 96 259.9 56 320 56C380.1 56 380.3 96 440 96C499.7 96 500.3 56 560 56C619.7 56 620.2 96 680 96C739.8 96 740.1 56 800 56C859.9 56 860.5 96 920 96C979.5 96 980 56 1040 56C1100 56 1100.4 96 1160 96C1219.6 96 1219.9 56 1280 56C1340.1 56 1340.3 96 1400 96C1459.7 96 1460.2 56 1520 56C1579.8 56 1580.2 96 1640 96C1699.8 96 1699.8 96 1699.8 96L1700 239H-60V96L-40 95.6Z" fill="white" stroke="white"/>
</g>
<rect y="100" width="1600" height="151" fill="white"/>
<defs>
<clipPath id="clip0_5_106">
<rect width="1600" height="100" fill="white"/>
</clipPath>
</defs>
</svg>